<?xml version="1.0" encoding="utf-8"?>
<svg version="1.1" xmlns="http://www.w3.org/2000/svg" width="310.000000pt" height="310.000000pt" xmlns:xlink="http://www.w3.org/1999/xlink" x="0px" y="0px"
	 viewBox="0 0 310 310" style="enable-background:new 0 0 152 152;" xml:space="preserve">
<path fill="#000000" d="M144.8,37.6c-6.9-7-18.2-7-25.2,0c-4,4-5.9,9.7-5,15.4l0,0c1.7,9.7-4.7,18.9-14.4,20.6c-2,0.3-4,0.4-6,0l0,0
	c-9.7-1.7-18.9,4.8-20.6,14.5c-0.3,1.9-0.3,3.9,0,5.8l0,0c1.7,9.7-4.8,18.9-14.4,20.6c-1.4,0.3-2.9,0.3-4.3,0.2
	c-8.8-4.4-12.4-15.1-8-23.9c0.7-1.4,1.6-2.8,2.7-4l0,0c3.1-4.2,4.2-9.6,3-14.8c-1-9.8,6.1-18.5,15.8-19.6c1.9-0.2,3.7-0.1,5.6,0.3
	l0,0c9.8,1.2,18.7-5.7,19.9-15.5c0.6-5.1-1-10.3-4.4-14.1L89.2,23c-0.2-0.2-0.3-0.4-0.5-0.5l-0.2-0.2c-6.4-6.5-16.7-7-23.8-1.3l0,0
	c-7.5,6.3-18.8,5.3-25.1-2.2c-1.3-1.5-2.3-3.2-3-5.1l0,0c-3.4-9.2-13.7-14-22.9-10.5s-14,13.7-10.5,22.9s13.7,14,22.9,10.5
	c1.8-0.6,3.4-1.6,4.9-2.7l0,0c7.5-6.4,18.7-5.5,25.1,2c1.1,1.2,2,2.6,2.6,4.1c0.5,9.8-7,18.2-16.9,18.7c-1.3,0.1-2.6,0-3.8-0.2l0,0
	c-9.7-1.7-18.9,4.9-20.6,14.6c-0.9,5.4,0.7,11,4.5,15.1l0.4,0.4l0.1,0.1c0.1,0.1,0.2,0.2,0.4,0.3c0.3,0.3,0.6,0.6,1,0.9l0.1,0.1
	c1.5,1.2,3.1,2.1,4.8,2.8l0,0c9.2,3.4,14,13.6,10.7,22.8c-0.7,1.9-1.7,3.6-3,5.2l0,0c-0.1,0.2-0.3,0.3-0.4,0.5s-0.4,0.5-0.6,0.8
	s-0.3,0.5-0.5,0.7s-0.3,0.5-0.4,0.7s-0.3,0.6-0.4,0.8s-0.2,0.5-0.3,0.7s-0.2,0.6-0.3,0.8s-0.2,0.5-0.3,0.8s-0.2,0.5-0.2,0.8
	s-0.2,0.6-0.2,0.9s-0.1,0.5-0.1,0.7s-0.1,0.7-0.1,1s0,0.5-0.1,0.7s0,0.7,0,1s0,0.5,0,0.7s0,0.6,0,1s0.1,0.6,0.1,0.9s0.1,0.5,0.1,0.8
	s0.2,0.7,0.2,1.1c0,0.1,0.1,0.3,0.1,0.4l0,0.2c0.1,0.4,0.2,0.8,0.4,1.2c0.1,0.2,0.1,0.4,0.2,0.5c0.1,0.4,0.3,0.7,0.5,1.1
	c0.1,0.2,0.2,0.4,0.3,0.6s0.3,0.6,0.5,0.9s0.3,0.4,0.4,0.7s0.3,0.5,0.5,0.7s0.4,0.5,0.5,0.7s0.3,0.4,0.5,0.6s0.4,0.5,0.7,0.8
	l0.2,0.2c0.1,0.1,0.3,0.3,0.4,0.4s0.4,0.4,0.7,0.6s0.5,0.4,0.8,0.6l0.6,0.4c0.3,0.2,0.6,0.4,0.9,0.6l0.5,0.3c0.3,0.2,0.7,0.4,1,0.5
	l0.5,0.2c0.3,0.1,0.7,0.3,1.1,0.4l0.6,0.2c0.3,0.1,0.7,0.2,1,0.3l0.7,0.2l0.9,0.2l0.8,0.1l0.9,0.1h0.8h0.9h0.8c0.3,0,0.7-0.1,1-0.1
	l0.6-0.1c0.4-0.1,0.8-0.2,1.3-0.3l0.3-0.1h0.1c0.4-0.1,0.9-0.3,1.3-0.4l0.4-0.1c0.4-0.2,0.8-0.3,1.2-0.5l0.5-0.2
	c0.3-0.2,0.7-0.4,1-0.6l0.6-0.3c0.3-0.2,0.5-0.4,0.8-0.5s0.5-0.3,0.7-0.5s0.4-0.4,0.6-0.5s0.5-0.4,0.7-0.7l0.2-0.1
	c0.1-0.1,0.3-0.3,0.4-0.4s0.4-0.4,0.6-0.7s0.4-0.5,0.6-0.8s0.3-0.4,0.4-0.6s0.4-0.6,0.6-0.9s0.2-0.4,0.3-0.6s0.3-0.6,0.5-1
	s0.2-0.4,0.3-0.6s0.3-0.6,0.4-1s0.2-0.4,0.2-0.7s0.2-0.6,0.3-0.9s0.1-0.5,0.2-0.8s0.1-0.5,0.2-0.8s0.1-0.6,0.1-0.9s0-0.5,0.1-0.7
	s0-0.7,0-1s0-0.5,0-0.7s0-0.6,0-1s-0.1-0.6-0.1-0.8c0-0.1,0-0.2,0-0.3l0,0c0-0.1,0-0.1,0-0.2v-0.1c-1.6-9.7,4.9-18.9,14.6-20.5
	c2.2-0.4,4.5-0.3,6.7,0.1l0,0c9.8,1.2,18.6-5.8,19.8-15.6c0.2-1.6,0.2-3.1-0.1-4.7l0,0c-1.8-9.7,4.6-19,14.3-20.8
	c2.3-0.4,4.7-0.4,7,0.1l0,0c9.8,1.2,18.6-5.8,19.8-15.6C150.5,46.9,148.6,41.5,144.8,37.6L144.8,37.6z"/>
</svg>
